<?xml version="1.0" encoding="utf-8"?>
<!-- Generator: Adobe Illustrator 26.1.0, SVG Export Plug-In . SVG Version: 6.00 Build 0)  -->
<svg version="1.1" id="Calque_1" xmlns="http://www.w3.org/2000/svg" xmlns:xlink="http://www.w3.org/1999/xlink" x="0px" y="0px"
	 viewBox="0 0 179.05 175.87" style="enable-background:new 0 0 179.05 175.87;" xml:space="preserve">
<style type="text/css">
	.st0{fill:#EFBB54;}
</style>
<g>
	<path class="st0" d="M60.55,64.62c-0.01,0-0.02,0-0.03,0c0,12.82,0.1,25.65-0.07,38.47c-0.04,3.12,1.16,4.64,3.75,6.18
		c6.97,4.14,13.8,8.56,20.47,13.16c2.72,1.88,4.95,2.17,7.75,0.45c7.49-4.58,14.98-9.16,22.64-13.44c2.87-1.61,3.85-3.53,3.84-6.74
		c-0.12-25.65-0.02-51.3-0.22-76.95c-0.02-1.97-1.28-4.51-2.8-5.79C108.37,13.64,100.5,7.75,92.92,1.5
		c-2.37-1.96-4.01-2.02-6.41-0.04C79.05,7.6,71.48,13.6,63.8,19.45c-2.54,1.93-3.37,4.06-3.32,7.2
		C60.65,39.3,60.55,51.96,60.55,64.62z M77.37,175.87c0-8-0.15-16.28,0.08-24.55c0.09-3.26-1.1-5.18-3.76-6.89
		c-11.35-7.28-22.68-14.61-33.79-22.24c-1.81-1.24-3.55-4.1-3.57-6.23C36.08,91,36.18,66.02,36.17,41.04c0-1.24-0.17-2.48-0.34-4.76
		C23.51,46.95,11.93,56.99,0,67.34c1.97,1.2,3.17,2.04,4.46,2.71c5.15,2.67,7.17,6.68,6.58,12.58c-0.53,5.28-0.52,10.69-0.01,15.97
		c0.99,10.15-0.62,19.11-9.33,25.63c-0.48,0.36-0.71,1.07-0.65,0.98C26.41,142.05,51.62,158.78,77.37,175.87z M101.95,175.56
		c25.81-16.95,51.1-33.56,77.1-50.63c-13.16-7.12-10.87-19.83-10.66-31.89c0.04-2.16,0.28-4.37-0.05-6.49
		c-1.36-8.76,1.36-15.22,9.91-18.65c0.16-0.06,0.14-0.59,0.27-1.26c-11.57-9.57-23.27-19.24-35.68-29.5
		c-0.13,2.15-0.24,3.1-0.24,4.06c0,24.32-0.09,48.64,0.11,72.96c0.04,4.19-1.32,6.64-4.81,8.88c-10.94,7-21.69,14.3-32.41,21.64
		c-1.49,1.02-3.34,2.86-3.39,4.38C101.79,158,101.95,166.96,101.95,175.56z"/>
	<path class="st0" d="M60.55,64.62c0-12.66,0.1-25.32-0.07-37.97c-0.04-3.14,0.78-5.26,3.32-7.2C71.48,13.6,79.05,7.6,86.51,1.46
		c2.4-1.98,4.04-1.92,6.41,0.04c7.58,6.25,15.45,12.15,22.96,18.47c1.52,1.28,2.78,3.82,2.8,5.79c0.2,25.65,0.1,51.3,0.22,76.95
		c0.01,3.21-0.97,5.13-3.84,6.74c-7.66,4.29-15.15,8.86-22.64,13.44c-2.8,1.72-5.03,1.43-7.75-0.45
		c-6.67-4.61-13.5-9.02-20.47-13.16c-2.59-1.54-3.79-3.06-3.75-6.18c0.17-12.82,0.07-25.65,0.07-38.47
		C60.53,64.62,60.54,64.62,60.55,64.62z"/>
	<path class="st0" d="M77.37,175.87c-25.75-17.09-50.96-33.83-76.32-50.66c-0.06,0.09,0.17-0.62,0.65-0.98
		c8.7-6.53,10.32-15.49,9.33-25.63c-0.51-5.28-0.51-10.69,0.01-15.97c0.59-5.9-1.43-9.92-6.58-12.58C3.17,69.38,1.97,68.54,0,67.34
		c11.93-10.34,23.51-20.38,35.83-31.06c0.17,2.29,0.34,3.53,0.34,4.76c0.01,24.98-0.09,49.96,0.15,74.93
		c0.02,2.13,1.76,4.98,3.57,6.23c11.11,7.63,22.44,14.96,33.79,22.24c2.66,1.71,3.85,3.62,3.76,6.89
		C77.22,159.59,77.37,167.87,77.37,175.87z"/>
	<path class="st0" d="M101.95,175.56c0-8.6-0.16-17.56,0.16-26.5c0.05-1.52,1.91-3.37,3.39-4.38c10.72-7.34,21.47-14.64,32.41-21.64
		c3.49-2.24,4.85-4.69,4.81-8.88c-0.2-24.32-0.11-48.64-0.11-72.96c0-0.96,0.11-1.91,0.24-4.06c12.4,10.26,24.1,19.93,35.68,29.5
		c-0.13,0.67-0.11,1.2-0.27,1.26c-8.56,3.44-11.28,9.9-9.91,18.65c0.33,2.11,0.08,4.32,0.05,6.49c-0.21,12.06-2.5,24.77,10.66,31.89
		C153.06,142.01,127.76,158.62,101.95,175.56z"/>
</g>
</svg>
